<svg width="19" height="22" viewBox="0 0 19 22" fill="none" xmlns="http://www.w3.org/2000/svg">
<path d="M9.56067 21C14.1981 19.4016 17.5037 15.6857 18.0221 10.9545C18.1657 8.90064 18.1539 6.83913 17.9857 4.78684C17.9636 4.46336 17.8216 4.15975 17.5876 3.93536C17.3535 3.71098 17.0442 3.58196 16.7201 3.57352C14.6221 3.50891 12.1837 3.15917 10.2996 1.30329C10.1029 1.10897 9.83747 1 9.56092 1C9.28438 1 9.01897 1.10897 8.82221 1.30329C6.93762 3.15917 4.49918 3.50891 2.40177 3.57352C2.07764 3.58196 1.76831 3.71098 1.53425 3.93536C1.3002 4.15975 1.15824 4.46336 1.13614 4.78684C0.967918 6.83883 0.955575 8.90061 1.09922 10.9545C1.61819 15.6857 4.92328 19.4016 9.56067 21Z" stroke="white" stroke-width="1.14489" stroke-linecap="round" stroke-linejoin="round"/>
</svg>
