<svg width="14" height="14" viewBox="0 0 14 14" fill="none" xmlns="http://www.w3.org/2000/svg">
<path d="M13.7821 12.3691C13.3535 11.987 12.9783 11.549 12.6666 11.0668C12.3262 10.4013 12.1222 9.6745 12.0666 8.92906V6.73351C12.0695 5.56267 11.6448 4.43105 10.8722 3.55127C10.0997 2.67149 9.03241 2.10411 7.871 1.95573V1.3824C7.871 1.22503 7.80849 1.07412 7.69722 0.962846C7.58595 0.851574 7.43503 0.789062 7.27767 0.789062C7.12031 0.789062 6.96939 0.851574 6.85812 0.962846C6.74685 1.07412 6.68434 1.22503 6.68434 1.3824V1.96462C5.53334 2.1237 4.47899 2.69451 3.71657 3.57133C2.95415 4.44815 2.53533 5.57157 2.53767 6.73351V8.92906C2.48201 9.6745 2.27802 10.4013 1.93767 11.0668C1.6314 11.5479 1.2622 11.9858 0.839893 12.3691C0.792485 12.4107 0.754489 12.462 0.728434 12.5195C0.702379 12.5769 0.688862 12.6393 0.688782 12.7024V13.3068C0.688782 13.4247 0.735607 13.5378 0.818956 13.6211C0.902306 13.7045 1.01535 13.7513 1.13323 13.7513H13.4888C13.6067 13.7513 13.7197 13.7045 13.8031 13.6211C13.8864 13.5378 13.9332 13.4247 13.9332 13.3068V12.7024C13.9331 12.6393 13.9196 12.5769 13.8936 12.5195C13.8675 12.462 13.8295 12.4107 13.7821 12.3691ZM1.61323 12.8624C2.02674 12.4629 2.39083 12.0153 2.69767 11.5291C3.12639 10.7253 3.37653 9.83841 3.431 8.92906V6.73351C3.41338 6.21263 3.50075 5.69354 3.68791 5.20714C3.87508 4.72073 4.15821 4.27697 4.52045 3.90226C4.88269 3.52756 5.31662 3.22958 5.79642 3.02607C6.27621 2.82256 6.79206 2.71769 7.31323 2.71769C7.8344 2.71769 8.35024 2.82256 8.83004 3.02607C9.30983 3.22958 9.74377 3.52756 10.106 3.90226C10.4682 4.27697 10.7514 4.72073 10.9385 5.20714C11.1257 5.69354 11.2131 6.21263 11.1954 6.73351V8.92906C11.2499 9.83841 11.5001 10.7253 11.9288 11.5291C12.2356 12.0153 12.5997 12.4629 13.0132 12.8624H1.61323Z" fill="#FFA412"/>
</svg>
