<svg width="52" height="46" viewBox="0 0 52 46" fill="none" xmlns="http://www.w3.org/2000/svg">
<rect y="0.117188" width="51.17" height="44.91" rx="8" fill="url(#paint0_linear_677_669)"/>
<g filter="url(#filter0_d_677_669)">
<path d="M41.7783 11.2366C42.3613 12.0906 45.1432 12.9698 45.1432 12.9698C45.1432 12.9698 42.4209 12.4674 41.4866 12.8827C40.4066 13.3627 39.6258 16.4989 39.6258 16.4989C39.6258 16.4989 40.1237 13.3294 39.3924 12.4387C38.6648 11.5527 36.0568 11.0435 36.0568 11.0435C36.0568 11.0435 38.8751 11.3859 39.8229 10.822C40.6885 10.3072 41.4782 7.96758 41.4782 7.96758C41.4782 7.96758 41.2178 10.4153 41.7783 11.2366Z" fill="#441A9A"/>
</g>
<path fill-rule="evenodd" clip-rule="evenodd" d="M15.8957 21.2587C18.5765 21.4059 21.283 21.455 24.0153 21.4063C24.0643 26.8446 24.015 32.2577 23.8677 37.6456C19.2041 35.1414 15.7594 31.4753 13.5336 26.6472C15.0099 26.5487 16.4862 26.5487 17.9625 26.6472C18.5772 27.5806 19.2169 28.4911 19.8817 29.3783C19.8905 29.4585 19.9397 29.5077 20.0293 29.526C20.1767 28.1022 20.226 26.6752 20.177 25.2447C17.7657 25.2447 15.3544 25.2447 12.9431 25.2447C11.5041 21.3347 10.8643 17.2995 11.0239 13.139C14.9661 10.3693 19.3458 8.84375 24.163 8.5625C24.2099 9.92817 24.1607 11.2814 24.0153 12.6223C20.8064 12.815 17.8293 13.7253 15.0837 15.3535C15.0497 17.3636 15.3203 19.3321 15.8957 21.2587Z" fill="#441A9A"/>
<path fill-rule="evenodd" clip-rule="evenodd" d="M25.9246 8.5625C30.6561 8.9749 34.9866 10.5004 38.916 13.139C39.0533 15.4183 38.9057 17.682 38.4731 19.93C37.0862 20.0242 35.7575 19.9257 34.4871 19.6347C34.7687 18.2197 34.8916 16.7926 34.8562 15.3535C33.2918 14.447 31.6432 13.7581 29.9106 13.2867C29.7143 18.6754 29.7143 24.0886 29.9106 29.526C30.0002 29.5077 30.0494 29.4585 30.0582 29.3783C31.0252 28.2134 31.8125 26.934 32.4203 25.5399C32.5005 25.5311 32.5496 25.4819 32.5679 25.3923C32.1357 25.247 31.6928 25.1979 31.2393 25.2447C31.2393 23.916 31.2393 22.5873 31.2393 21.2587C33.5543 21.2095 35.8672 21.2588 38.1779 21.4063C36.5404 28.6477 32.5052 34.0609 26.0722 37.6456C25.9247 27.9761 25.8756 18.2817 25.9246 8.5625Z" fill="#441A9A"/>
<defs>
<filter id="filter0_d_677_669" x="34.5168" y="6.73538" width="12.2633" height="11.7086" filterUnits="userSpaceOnUse" color-interpolation-filters="sRGB">
<feFlood flood-opacity="0" result="BackgroundImageFix"/>
<feColorMatrix in="SourceAlpha" type="matrix" values="0 0 0 0 0 0 0 0 0 0 0 0 0 0 0 0 0 0 127 0" result="hardAlpha"/>
<feOffset dx="0.0507559" dy="0.355291"/>
<feGaussianBlur stdDeviation="0.794329"/>
<feComposite in2="hardAlpha" operator="out"/>
<feColorMatrix type="matrix" values="0 0 0 0 0.719724 0 0 0 0 0.552584 0 0 0 0 0.982372 0 0 0 0.8 0"/>
<feBlend mode="normal" in2="BackgroundImageFix" result="effect1_dropShadow_677_669"/>
<feBlend mode="normal" in="SourceGraphic" in2="effect1_dropShadow_677_669" result="shape"/>
</filter>
<linearGradient id="paint0_linear_677_669" x1="3.31984" y1="47.9409" x2="47.8502" y2="-2.79651" gradientUnits="userSpaceOnUse">
<stop stop-color="#3B82F6" stop-opacity="0.2"/>
<stop offset="1" stop-color="#A855F7" stop-opacity="0.2"/>
</linearGradient>
</defs>
</svg>
