<svg width="22" height="22" viewBox="0 0 22 22" fill="none" xmlns="http://www.w3.org/2000/svg">
<mask id="mask0_1206_2937" style="mask-type:luminance" maskUnits="userSpaceOnUse" x="0" y="0" width="22" height="22">
<rect y="0.666504" width="21.3333" height="21.3333" fill="white"/>
</mask>
<g mask="url(#mask0_1206_2937)">
<path d="M9.11346 5.89713L9.36093 9.5771L9.48377 11.4267C9.48511 11.6169 9.51489 11.8059 9.5724 11.9875C9.72075 12.34 10.0777 12.564 10.4661 12.5484L16.3836 12.1613C16.6399 12.1571 16.8873 12.2529 17.0715 12.4278C17.225 12.5735 17.3241 12.764 17.3554 12.969L17.3659 13.0935C17.121 16.4843 14.6306 19.3126 11.2468 20.0426C7.86293 20.7727 4.39298 19.2304 2.72085 16.2532C2.23879 15.3882 1.93769 14.4375 1.83522 13.4568C1.79243 13.1665 1.77358 12.8733 1.77887 12.5799C1.77358 8.94459 4.36242 5.80169 7.98629 5.04401C8.42245 4.97609 8.85002 5.20698 9.02493 5.60486C9.07017 5.697 9.10004 5.79569 9.11346 5.89713Z" fill="#757575"/>
<path opacity="0.4" d="M19.5558 9.38859L19.5496 9.41756L19.5316 9.45969L19.5341 9.57536C19.5249 9.72851 19.4657 9.87589 19.3638 9.995C19.2576 10.119 19.1125 10.2034 18.9528 10.2362L18.8554 10.2496L12.028 10.692C11.8009 10.7144 11.5747 10.6411 11.4059 10.4906C11.2651 10.365 11.1752 10.1955 11.1498 10.013L10.6915 3.1955C10.6835 3.17245 10.6835 3.14746 10.6915 3.12441C10.6978 2.93649 10.7805 2.75886 10.9212 2.63121C11.0619 2.50355 11.2489 2.43651 11.4403 2.44506C15.4935 2.54818 18.9001 5.46282 19.5558 9.38859Z" fill="#757575"/>
</g>
</svg>
