<svg width="15" height="15" viewBox="0 0 15 15" fill="none" xmlns="http://www.w3.org/2000/svg">
<path d="M7.59023 0.248535C6.63049 0.248535 5.68016 0.437569 4.79348 0.804842C3.90681 1.17212 3.10115 1.71044 2.42252 2.38907C1.05196 3.75963 0.281982 5.61851 0.281982 7.55678C0.281982 10.787 2.37945 13.5276 5.28082 14.4996C5.64623 14.5581 5.76317 14.3315 5.76317 14.1342V12.8991C3.73878 13.3376 3.3076 11.9198 3.3076 11.9198C2.97142 11.072 2.49638 10.8455 2.49638 10.8455C1.83133 10.3924 2.54754 10.407 2.54754 10.407C3.27836 10.4582 3.6657 11.1597 3.6657 11.1597C4.30152 12.2706 5.37583 11.9417 5.7924 11.7663C5.85817 11.2913 6.04819 10.9697 6.25282 10.787C4.63039 10.6043 2.92757 9.97581 2.92757 7.19137C2.92757 6.38015 3.20528 5.72972 3.68032 5.21083C3.60723 5.02813 3.35144 4.26807 3.7534 3.28146C3.7534 3.28146 4.36729 3.08413 5.76317 4.0269C6.34052 3.86612 6.96903 3.78573 7.59023 3.78573C8.21143 3.78573 8.83994 3.86612 9.41729 4.0269C10.8132 3.08413 11.4271 3.28146 11.4271 3.28146C11.829 4.26807 11.5732 5.02813 11.5001 5.21083C11.9752 5.72972 12.2529 6.38015 12.2529 7.19137C12.2529 9.98312 10.5428 10.597 8.91302 10.7797C9.17612 11.0063 9.41729 11.4521 9.41729 12.1317V14.1342C9.41729 14.3315 9.53422 14.5654 9.90694 14.4996C12.8083 13.5203 14.8985 10.787 14.8985 7.55678C14.8985 6.59705 14.7094 5.64671 14.3422 4.76004C13.9749 3.87336 13.4366 3.0677 12.7579 2.38907C12.0793 1.71044 11.2736 1.17212 10.387 0.804842C9.50029 0.437569 8.54996 0.248535 7.59023 0.248535Z" fill="white"/>
</svg>
