<svg width="16" height="17" viewBox="0 0 16 17" fill="none" xmlns="http://www.w3.org/2000/svg">
<g clip-path="url(#clip0_1206_2949)">
<path d="M6 11.6298L6.58999 11.0165L4.79833 9.18502L6.58999 7.35354L6 6.74021L3.60833 9.18502L6 11.6298ZM9.99999 11.6298L12.3917 9.18502L9.99999 6.74021L9.41 7.35354L11.2017 9.18502L9.41 11.0165L9.99999 11.6298ZM2.68 15.9998C2.30944 15.9998 1.99249 15.865 1.72916 15.5952C1.46583 15.3255 1.33388 15.002 1.33333 14.6249V3.74595C1.33333 3.36773 1.46527 3.04402 1.72916 2.77484C1.99305 2.50565 2.30972 2.37078 2.67916 2.37021H6.59583C6.52027 1.9352 6.62222 1.54249 6.90166 1.1921C7.18055 0.841702 7.54944 0.666504 8.00833 0.666504C8.46722 0.666504 8.83611 0.841702 9.115 1.1921C9.39388 1.54249 9.49027 1.9352 9.40416 2.37021H13.3208C13.6908 2.37021 14.0075 2.50508 14.2708 2.77484C14.5342 3.04459 14.6661 3.36829 14.6667 3.74595V14.6241C14.6667 15.0023 14.5347 15.326 14.2708 15.5952C14.0069 15.8644 13.6903 15.9993 13.3208 15.9998H2.68ZM7.99999 2.74673C8.18055 2.74673 8.32999 2.68653 8.44833 2.56613C8.56666 2.44574 8.62555 2.29297 8.62499 2.10784C8.62444 1.9227 8.56527 1.77022 8.44749 1.65039C8.32972 1.53057 8.18055 1.47008 7.99999 1.46895C7.81944 1.46781 7.67027 1.52829 7.5525 1.65039C7.43472 1.77249 7.37555 1.92497 7.37499 2.10784C7.37444 2.2907 7.43361 2.44347 7.5525 2.56613C7.67138 2.6888 7.82055 2.749 7.99999 2.74673Z" fill="#7B7B7B"/>
</g>
<defs>
<clipPath id="clip0_1206_2949">
<rect width="16" height="16" fill="white" transform="translate(0 0.666504)"/>
</clipPath>
</defs>
</svg>
