<svg width="16" height="17" viewBox="0 0 16 17" fill="none" xmlns="http://www.w3.org/2000/svg">
<g clip-path="url(#clip0_1217_2301)">
<path d="M6.00004 11.6298L6.59004 11.0165L4.79837 9.18502L6.59004 7.35354L6.00004 6.74021L3.60837 9.18502L6.00004 11.6298ZM10 11.6298L12.3917 9.18502L10 6.74021L9.41004 7.35354L11.2017 9.18502L9.41004 11.0165L10 11.6298ZM2.68004 15.9998C2.30949 15.9998 1.99254 15.865 1.72921 15.5952C1.46587 15.3255 1.33393 15.002 1.33337 14.6249V3.74595C1.33337 3.36773 1.46532 3.04402 1.72921 2.77484C1.9931 2.50565 2.30976 2.37078 2.67921 2.37021H6.59587C6.52032 1.9352 6.62226 1.54249 6.90171 1.1921C7.1806 0.841702 7.54949 0.666504 8.00837 0.666504C8.46726 0.666504 8.83615 0.841702 9.11504 1.1921C9.39393 1.54249 9.49032 1.9352 9.40421 2.37021H13.3209C13.6909 2.37021 14.0075 2.50508 14.2709 2.77484C14.5342 3.04459 14.6662 3.36829 14.6667 3.74595V14.6241C14.6667 15.0023 14.5348 15.326 14.2709 15.5952C14.007 15.8644 13.6903 15.9993 13.3209 15.9998H2.68004ZM8.00004 2.74673C8.1806 2.74673 8.33004 2.68653 8.44837 2.56613C8.56671 2.44574 8.6256 2.29297 8.62504 2.10784C8.62449 1.9227 8.56532 1.77022 8.44754 1.65039C8.32976 1.53057 8.1806 1.47008 8.00004 1.46895C7.81949 1.46781 7.67032 1.52829 7.55254 1.65039C7.43476 1.77249 7.3756 1.92497 7.37504 2.10784C7.37449 2.2907 7.43365 2.44347 7.55254 2.56613C7.67143 2.6888 7.8206 2.749 8.00004 2.74673Z" fill="#19191C"/>
</g>
<defs>
<clipPath id="clip0_1217_2301">
<rect width="16" height="16" fill="white" transform="translate(0 0.666504)"/>
</clipPath>
</defs>
</svg>
