<svg width="16" height="16" viewBox="0 0 16 16" fill="none" xmlns="http://www.w3.org/2000/svg">
<path d="M5.33333 0H13.3333C13.687 0 14.0261 0.140476 14.2761 0.390524C14.5262 0.640573 14.6667 0.979711 14.6667 1.33333V12C14.6667 12.3536 14.5262 12.6928 14.2761 12.9428C14.0261 13.1929 13.687 13.3333 13.3333 13.3333H5.33333C4.97971 13.3333 4.64057 13.1929 4.39052 12.9428C4.14047 12.6928 3.99999 12.3536 3.99999 12V1.33333C3.99999 0.979711 4.14047 0.640573 4.39052 0.390524C4.64057 0.140476 4.97971 0 5.33333 0ZM9.83333 7.66667C11.6667 7.66667 12.16 6.31333 12.2867 5.6C12.8933 5.40667 13.3333 4.84 13.3333 4.16667C13.3333 3.33333 12.6667 2.66667 11.8333 2.66667C11 2.66667 10.3333 3.33333 10.3333 4.16667C10.3333 4.79333 10.7133 5.33333 11.26 5.55333C11.1133 6 10.6667 6.66667 9.33333 6.66667C8.41333 6.66667 7.77333 6.9 7.33333 7.22667V4.58C7.91333 4.37333 8.33333 3.82 8.33333 3.16667C8.33333 2.33333 7.66666 1.66667 6.83333 1.66667C6 1.66667 5.33333 2.33333 5.33333 3.16667C5.33333 3.82 5.75333 4.37333 6.33333 4.58V8.75333C5.75333 8.96 5.33333 9.51333 5.33333 10.1667C5.33333 11 6 11.6667 6.83333 11.6667C7.66666 11.6667 8.33333 11 8.33333 10.1667C8.33333 9.54667 7.96 9 7.42 8.78667C7.60666 8.33333 8.15333 7.66667 9.83333 7.66667ZM6.83333 9.66667C6.96594 9.66667 7.09311 9.71935 7.18688 9.81311C7.28065 9.90688 7.33333 10.0341 7.33333 10.1667C7.33333 10.2993 7.28065 10.4265 7.18688 10.5202C7.09311 10.614 6.96594 10.6667 6.83333 10.6667C6.70072 10.6667 6.57354 10.614 6.47978 10.5202C6.38601 10.4265 6.33333 10.2993 6.33333 10.1667C6.33333 10.0341 6.38601 9.90688 6.47978 9.81311C6.57354 9.71935 6.70072 9.66667 6.83333 9.66667ZM6.83333 2.66667C6.96594 2.66667 7.09311 2.71935 7.18688 2.81311C7.28065 2.90688 7.33333 3.03406 7.33333 3.16667C7.33333 3.29927 7.28065 3.42645 7.18688 3.52022C7.09311 3.61399 6.96594 3.66667 6.83333 3.66667C6.70072 3.66667 6.57354 3.61399 6.47978 3.52022C6.38601 3.42645 6.33333 3.29927 6.33333 3.16667C6.33333 3.03406 6.38601 2.90688 6.47978 2.81311C6.57354 2.71935 6.70072 2.66667 6.83333 2.66667ZM11.8333 3.66667C11.9659 3.66667 12.0931 3.71935 12.1869 3.81311C12.2807 3.90688 12.3333 4.03406 12.3333 4.16667C12.3333 4.29927 12.2807 4.42645 12.1869 4.52022C12.0931 4.61399 11.9659 4.66667 11.8333 4.66667C11.7007 4.66667 11.5735 4.61399 11.4798 4.52022C11.386 4.42645 11.3333 4.29927 11.3333 4.16667C11.3333 4.03406 11.386 3.90688 11.4798 3.81311C11.5735 3.71935 11.7007 3.66667 11.8333 3.66667ZM10.6667 14.6667V16H2.66666C2.31304 16 1.9739 15.8595 1.72385 15.6095C1.4738 15.3594 1.33333 15.0203 1.33333 14.6667V4H2.66666V14.6667H10.6667Z" fill="#18181B"/>
</svg>
