<svg width="16" height="16" viewBox="0 0 16 16" fill="none" xmlns="http://www.w3.org/2000/svg">
<path d="M5.33337 0H13.3334C13.687 0 14.0261 0.140476 14.2762 0.390524C14.5262 0.640573 14.6667 0.979711 14.6667 1.33333V12C14.6667 12.3536 14.5262 12.6928 14.2762 12.9428C14.0261 13.1929 13.687 13.3333 13.3334 13.3333H5.33337C4.97975 13.3333 4.64061 13.1929 4.39056 12.9428C4.14052 12.6928 4.00004 12.3536 4.00004 12V1.33333C4.00004 0.979711 4.14052 0.640573 4.39056 0.390524C4.64061 0.140476 4.97975 0 5.33337 0ZM9.83337 7.66667C11.6667 7.66667 12.16 6.31333 12.2867 5.6C12.8934 5.40667 13.3334 4.84 13.3334 4.16667C13.3334 3.33333 12.6667 2.66667 11.8334 2.66667C11 2.66667 10.3334 3.33333 10.3334 4.16667C10.3334 4.79333 10.7134 5.33333 11.26 5.55333C11.1134 6 10.6667 6.66667 9.33337 6.66667C8.41337 6.66667 7.77337 6.9 7.33337 7.22667V4.58C7.91337 4.37333 8.33337 3.82 8.33337 3.16667C8.33337 2.33333 7.66671 1.66667 6.83337 1.66667C6.00004 1.66667 5.33337 2.33333 5.33337 3.16667C5.33337 3.82 5.75337 4.37333 6.33337 4.58V8.75333C5.75337 8.96 5.33337 9.51333 5.33337 10.1667C5.33337 11 6.00004 11.6667 6.83337 11.6667C7.66671 11.6667 8.33337 11 8.33337 10.1667C8.33337 9.54667 7.96004 9 7.42004 8.78667C7.60671 8.33333 8.15337 7.66667 9.83337 7.66667ZM6.83337 9.66667C6.96598 9.66667 7.09316 9.71935 7.18693 9.81311C7.2807 9.90688 7.33337 10.0341 7.33337 10.1667C7.33337 10.2993 7.2807 10.4265 7.18693 10.5202C7.09316 10.614 6.96598 10.6667 6.83337 10.6667C6.70077 10.6667 6.57359 10.614 6.47982 10.5202C6.38605 10.4265 6.33337 10.2993 6.33337 10.1667C6.33337 10.0341 6.38605 9.90688 6.47982 9.81311C6.57359 9.71935 6.70077 9.66667 6.83337 9.66667ZM6.83337 2.66667C6.96598 2.66667 7.09316 2.71935 7.18693 2.81311C7.2807 2.90688 7.33337 3.03406 7.33337 3.16667C7.33337 3.29927 7.2807 3.42645 7.18693 3.52022C7.09316 3.61399 6.96598 3.66667 6.83337 3.66667C6.70077 3.66667 6.57359 3.61399 6.47982 3.52022C6.38605 3.42645 6.33337 3.29927 6.33337 3.16667C6.33337 3.03406 6.38605 2.90688 6.47982 2.81311C6.57359 2.71935 6.70077 2.66667 6.83337 2.66667ZM11.8334 3.66667C11.966 3.66667 12.0932 3.71935 12.1869 3.81311C12.2807 3.90688 12.3334 4.03406 12.3334 4.16667C12.3334 4.29927 12.2807 4.42645 12.1869 4.52022C12.0932 4.61399 11.966 4.66667 11.8334 4.66667C11.7008 4.66667 11.5736 4.61399 11.4798 4.52022C11.3861 4.42645 11.3334 4.29927 11.3334 4.16667C11.3334 4.03406 11.3861 3.90688 11.4798 3.81311C11.5736 3.71935 11.7008 3.66667 11.8334 3.66667ZM10.6667 14.6667V16H2.66671C2.31309 16 1.97395 15.8595 1.7239 15.6095C1.47385 15.3594 1.33337 15.0203 1.33337 14.6667V4H2.66671V14.6667H10.6667Z" fill="#717171"/>
</svg>
