<svg width="17" height="16" viewBox="0 0 17 16" fill="none" xmlns="http://www.w3.org/2000/svg">
<path d="M16.2763 13.724L12.8917 10.3393C13.591 9.28533 14.0003 8.02333 14.0003 6.66667C14.0003 2.99067 11.0097 0 7.33366 0C3.65766 0 0.666992 2.99067 0.666992 6.66667C0.666992 10.3427 3.65766 13.3333 7.33366 13.3333C8.69032 13.3333 9.95233 12.924 11.0063 12.2247L14.391 15.6093C14.911 16.13 15.7563 16.13 16.2763 15.6093C16.797 15.0887 16.797 14.2447 16.2763 13.724ZM2.66699 6.66667C2.66699 4.09333 4.76033 2 7.33366 2C9.90699 2 12.0003 4.09333 12.0003 6.66667C12.0003 9.24 9.90699 11.3333 7.33366 11.3333C4.76033 11.3333 2.66699 9.24 2.66699 6.66667Z" fill="white"/>
</svg>
