<svg width="16" height="17" viewBox="0 0 16 17" fill="none" xmlns="http://www.w3.org/2000/svg">
<path fill-rule="evenodd" clip-rule="evenodd" d="M8.37533 2.8H7.62466L7.19466 4.51867L6.76333 4.652C6.51198 4.72945 6.26847 4.83034 6.03599 4.95333L5.63666 5.16467L4.11666 4.25267L3.58599 4.784L4.49799 6.304L4.28666 6.70267C4.16344 6.93512 4.06233 7.17863 3.98466 7.43L3.85199 7.86133L2.13333 8.29133V9.042L3.85199 9.472L3.98533 9.90333C4.06222 10.1558 4.16266 10.3982 4.28666 10.6307L4.49799 11.03L3.58599 12.55L4.11733 13.0807L5.63733 12.1687L6.03599 12.38C6.26844 12.5036 6.51088 12.6042 6.76333 12.682L7.19466 12.8147L7.62466 14.5333H8.37533L8.80533 12.8147L9.23666 12.6813C9.48801 12.6039 9.73152 12.503 9.96399 12.38L10.3633 12.1687L11.8833 13.0807L12.414 12.5493L11.502 11.0293L11.7133 10.6307C11.8369 10.3982 11.9376 10.1558 12.0153 9.90333L12.148 9.472L13.8667 9.042V8.29133L12.148 7.86133L12.0147 7.43C11.9372 7.17866 11.8363 6.93514 11.7133 6.70267L11.502 6.30333L12.414 4.78333L11.8827 4.25267L10.3627 5.16467L9.96399 4.95333C9.73154 4.83011 9.48803 4.729 9.23666 4.65133L8.80533 4.51867L8.37533 2.8ZM10.3387 4.24667L11.5607 3.51333C11.6881 3.43691 11.8374 3.40524 11.9849 3.42336C12.1323 3.44147 12.2695 3.50834 12.3747 3.61333L13.0533 4.292C13.1583 4.39713 13.2252 4.53433 13.2433 4.6818C13.2614 4.82928 13.2298 4.97858 13.1533 5.106L12.42 6.328C12.5667 6.60356 12.6867 6.89244 12.78 7.19467L14.162 7.54067C14.3062 7.57678 14.4341 7.66003 14.5256 7.77719C14.617 7.89436 14.6667 8.03871 14.6667 8.18733V9.146C14.6667 9.29462 14.617 9.43897 14.5256 9.55614C14.4341 9.6733 14.3062 9.75655 14.162 9.79267L12.78 10.1387C12.6867 10.4409 12.5667 10.7298 12.42 11.0053L13.1533 12.2273C13.2298 12.3548 13.2614 12.5041 13.2433 12.6515C13.2252 12.799 13.1583 12.9362 13.0533 13.0413L12.3747 13.72C12.2695 13.825 12.1323 13.8919 11.9849 13.91C11.8374 13.9281 11.6881 13.8964 11.5607 13.82L10.3387 13.0867C10.0631 13.2333 9.77422 13.3533 9.47199 13.4467L9.12599 14.8287C9.08988 14.9728 9.00663 15.1008 8.88947 15.1922C8.7723 15.2837 8.62795 15.3333 8.47933 15.3333H7.52066C7.37204 15.3333 7.22769 15.2837 7.11052 15.1922C6.99336 15.1008 6.91011 14.9728 6.87399 14.8287L6.52799 13.4467C6.22846 13.3541 5.93829 13.2336 5.66133 13.0867L4.43933 13.82C4.31191 13.8964 4.16261 13.9281 4.01513 13.91C3.86766 13.8919 3.73046 13.825 3.62533 13.72L2.94666 13.0413C2.84167 12.9362 2.7748 12.799 2.75669 12.6515C2.73857 12.5041 2.77024 12.3548 2.84666 12.2273L3.57999 11.0053C3.43309 10.7284 3.31256 10.4382 3.21999 10.1387L1.83799 9.79267C1.69394 9.75658 1.56606 9.67343 1.47464 9.5564C1.38321 9.43937 1.33348 9.29517 1.33333 9.14667V8.188C1.33333 8.03938 1.383 7.89502 1.47443 7.77786C1.56587 7.6607 1.69383 7.57745 1.83799 7.54133L3.21999 7.19533C3.31333 6.89311 3.43333 6.60422 3.57999 6.32867L2.84666 5.10667C2.77024 4.97925 2.73857 4.82995 2.75669 4.68247C2.7748 4.535 2.84167 4.3978 2.94666 4.29267L3.62533 3.61333C3.73046 3.50834 3.86766 3.44147 4.01513 3.42336C4.16261 3.40524 4.31191 3.43691 4.43933 3.51333L5.66133 4.24667C5.93688 4.1 6.22577 3.98 6.52799 3.88667L6.87399 2.50467C6.91008 2.36061 6.99323 2.23273 7.11026 2.14131C7.22729 2.04988 7.37149 2.00015 7.51999 2H8.47866C8.62728 2 8.77164 2.04967 8.8888 2.1411C9.00596 2.23254 9.08921 2.3605 9.12533 2.50467L9.47133 3.88667C9.77355 3.98 10.0624 4.1 10.338 4.24667H10.3387ZM7.99999 10.5333C8.49507 10.5333 8.96986 10.3367 9.31993 9.9866C9.67 9.63653 9.86666 9.16174 9.86666 8.66667C9.86666 8.1716 9.67 7.6968 9.31993 7.34673C8.96986 6.99667 8.49507 6.8 7.99999 6.8C7.50492 6.8 7.03013 6.99667 6.68006 7.34673C6.32999 7.6968 6.13333 8.1716 6.13333 8.66667C6.13333 9.16174 6.32999 9.63653 6.68006 9.9866C7.03013 10.3367 7.50492 10.5333 7.99999 10.5333ZM7.99999 11.3333C7.29275 11.3333 6.61447 11.0524 6.11438 10.5523C5.61428 10.0522 5.33333 9.37391 5.33333 8.66667C5.33333 7.95942 5.61428 7.28115 6.11438 6.78105C6.61447 6.28095 7.29275 6 7.99999 6C8.70724 6 9.38552 6.28095 9.88561 6.78105C10.3857 7.28115 10.6667 7.95942 10.6667 8.66667C10.6667 9.37391 10.3857 10.0522 9.88561 10.5523C9.38552 11.0524 8.70724 11.3333 7.99999 11.3333Z" fill="#7B7B7B"/>
</svg>
