<svg width="36" height="32" viewBox="0 0 36 32" fill="none" xmlns="http://www.w3.org/2000/svg">
<g filter="url(#filter0_d_688_669)">
<path d="M30.7783 5.23657C31.3613 6.09063 34.1432 6.96981 34.1432 6.96981C34.1432 6.96981 31.4209 6.46742 30.4866 6.88268C29.4066 7.36273 28.6258 10.4989 28.6258 10.4989C28.6258 10.4989 29.1237 7.32936 28.3924 6.4387C27.6648 5.55272 25.0568 5.04353 25.0568 5.04353C25.0568 5.04353 27.8751 5.38587 28.8229 4.82204C29.6885 4.30719 30.4782 1.96758 30.4782 1.96758C30.4782 1.96758 30.2178 4.41534 30.7783 5.23657Z" fill="#441A9A"/>
</g>
<path fill-rule="evenodd" clip-rule="evenodd" d="M4.89568 15.2587C7.57649 15.4059 10.283 15.455 13.0153 15.4063C13.0643 20.8446 13.015 26.2577 12.8677 31.6456C8.20407 29.1414 4.7594 25.4753 2.5336 20.6472C4.0099 20.5487 5.4862 20.5487 6.9625 20.6472C7.57723 21.5806 8.21691 22.4911 8.88169 23.3783C8.89055 23.4585 8.93971 23.5077 9.02932 23.526C9.17666 22.1022 9.22596 20.6752 9.17695 19.2447C6.76567 19.2447 4.35437 19.2447 1.94308 19.2447C0.504059 15.3347 -0.135681 11.2995 0.0238927 7.13903C3.96614 4.36927 8.34579 2.84375 13.163 2.5625C13.2099 3.92817 13.1607 5.28143 13.0153 6.62232C9.80645 6.81495 6.82928 7.72534 4.08372 9.35348C4.04966 11.3636 4.32032 13.3321 4.89568 15.2587Z" fill="#441A9A"/>
<path fill-rule="evenodd" clip-rule="evenodd" d="M14.9246 2.5625C19.6561 2.9749 23.9866 4.50041 27.916 7.13903C28.0533 9.41829 27.9057 11.682 27.4731 13.93C26.0862 14.0242 24.7575 13.9257 23.4871 13.6347C23.7687 12.2197 23.8916 10.7926 23.8562 9.35348C22.2918 8.44699 20.6432 7.75806 18.9106 7.28666C18.7143 12.6754 18.7143 18.0886 18.9106 23.526C19.0002 23.5077 19.0494 23.4585 19.0582 23.3783C20.0252 22.2134 20.8125 20.934 21.4203 19.5399C21.5005 19.5311 21.5496 19.4819 21.5679 19.3923C21.1357 19.247 20.6928 19.1979 20.2393 19.2447C20.2393 17.916 20.2393 16.5873 20.2393 15.2587C22.5543 15.2095 24.8672 15.2588 27.1779 15.4063C25.5404 22.6477 21.5052 28.0609 15.0722 31.6456C14.9247 21.9761 14.8756 12.2817 14.9246 2.5625Z" fill="#441A9A"/>
<defs>
<filter id="filter0_d_688_669" x="23.5168" y="0.735382" width="12.2633" height="11.7086" filterUnits="userSpaceOnUse" color-interpolation-filters="sRGB">
<feFlood flood-opacity="0" result="BackgroundImageFix"/>
<feColorMatrix in="SourceAlpha" type="matrix" values="0 0 0 0 0 0 0 0 0 0 0 0 0 0 0 0 0 0 127 0" result="hardAlpha"/>
<feOffset dx="0.0507559" dy="0.355291"/>
<feGaussianBlur stdDeviation="0.794329"/>
<feComposite in2="hardAlpha" operator="out"/>
<feColorMatrix type="matrix" values="0 0 0 0 0.719724 0 0 0 0 0.552584 0 0 0 0 0.982372 0 0 0 0.8 0"/>
<feBlend mode="normal" in2="BackgroundImageFix" result="effect1_dropShadow_688_669"/>
<feBlend mode="normal" in="SourceGraphic" in2="effect1_dropShadow_688_669" result="shape"/>
</filter>
</defs>
</svg>
